#!OML:ASF H:\Dans Jumps\Project 1\Capture day 1\Session 1\subject.ASF
:FULLY-SPECIFIED
:DEGREES
559
root -0.0275302 17.7183 2.34033 6.45448 -0.00646144 -1.97998
lowerback -3.60052 -0.317303 0.0409831
upperback 0.688969 -0.466989 1.56195
thorax 2.73964 -0.244862 1.55492
lowerneck -12.4639 -0.835088 -2.6397
upperneck 18.2078 -0.897487 1.47707
head 7.68442 -0.469125 0.831948
rclavicle -2.33572e-015 -1.19271e-015
rhumerus -28.2531 -18.0685 -80.2766
rradius 22.7467
rwrist 34.7696
rhand -20.1667 -25.8095
rfingers 7.12502
rthumb 6.1789 -55.6994
lclavicle -2.33572e-015 -1.19271e-015
lhumerus -26.7173 -0.381803 89.2073
lradius 17.6871
lwrist 4.75691
lhand -26.005 -3.05099
lfingers 7.12502
lthumb 0.540924 26.9281
rfemur -11.4852 -1.37257 19.0607
rtibia 19.7099
rfoot -12.9902 -2.59061
rtoes 10.8418
lfemur -11.2797 5.68589 -15.474
ltibia 18.0503
lfoot -9.11955 7.05405
ltoes -3.33873
560
root -0.0272303 17.7184 2.34485 6.48291 -0.00807756 -2.00835
lowerback -3.64043 -0.323122 0.0597384
upperback 0.680673 -0.476114 1.57045
thorax 2.75372 -0.249193 1.55244
lowerneck -12.4588 -0.829262 -2.62746
upperneck 18.0877 -0.885299 1.44705
head 7.64355 -0.46492 0.820959
rclavicle -4.32357e-015 5.96354e-015
rhumerus -28.2795 -18.1253 -80.2648
rradius 22.7174
rwrist 34.812
rhand -20.1549 -25.8194
rfingers 7.12502
rthumb 6.19026 -55.709
lclavicle -4.32357e-015 5.96354e-015
lhumerus -26.7203 -0.00701247 89.0218
lradius 17.4374
lwrist 4.27462
lhand -26.1207 -3.49858
lfingers 7.12502
lthumb 0.42919 26.4807
rfemur -11.4778 -1.3409 19.091
rtibia 19.6691
rfoot -12.9892 -2.62532
rtoes 10.822
lfemur -11.2987 5.69401 -15.4441
ltibia 18.0609
lfoot -9.14602 7.05566
ltoes -3.3249
561
root -0.0272245 17.7187 2.34898 6.5163 -0.0175393 -2.03232
lowerback -3.68288 -0.326212 0.0693991
upperback 0.66947 -0.481163 1.57858
thorax 2.76619 -0.251618 1.55492
lowerneck -12.4455 -0.820124 -2.61033
upperneck 17.9696 -0.869309 1.4142
head 7.60175 -0.458855 0.808658
rclavicle -4.14963e-015 0
rhumerus -28.3152 -18.1664 -80.2523
rradius 22.6975
rwrist 34.8568
rhand -20.1335 -25.8311
rfingers 7.12502
rthumb 6.21098 -55.72
lclavicle -4.14963e-015 0
lhumerus -26.7274 0.364799 88.8391
lradius 17.1859
lwrist 3.78314
lhand -26.2556 -4.02877
lfingers 7.12502
lthumb 0.298904 25.9508
rfemur -11.4801 -1.29571 19.1172
rtibia 19.6317
rfoot -12.9863 -2.6662
rtoes 10.8101
lfemur -11.3235 5.70936 -15.4191
ltibia 18.0706
lfoot -9.17015 7.05725
ltoes -3.31295
562
root -0.0272073 17.7189 2.35302 6.54519 -0.026582 -2.04769
lowerback -3.71924 -0.328191 0.0683571
upperback 0.660018 -0.484162 1.58526
thorax 2.77707 -0.253183 1.56207
lowerneck -12.4454 -0.811428 -2.59063
upperneck 17.8656 -0.854302 1.38162
head 7.56704 -0.453047 0.795944
rclavicle 5.04416e-015 -2.18663e-015
rhumerus -28.3505 -18.2159 -80.2317
rradius 22.6732
rwrist 34.9155
rhand -20.1025 -25.8441
rfingers 7.12502
rthumb 6.24084 -55.7322
lclavicle 5.04416e-015 -2.18663e-015
lhumerus -26.7348 0.709313 88.6702
lradius 16.9561
lwrist 3.32923
lhand -26.3806 -4.51055
lfingers 7.12502
lthumb 0.178169 25.4691
rfemur -11.4818 -1.25007 19.1337
rtibia 19.6016
rfoot -12.9875 -2.70784
rtoes 10.8127
lfemur -11.3408 5.72129 -15.4032
ltibia 18.0736
lfoot -9.19084 7.06011
ltoes -3.3008
563
root -0.0272414 17.7191 2.3567 6.57255 -0.0346584 -2.0523
lowerback -3.75657 -0.332014 0.0552084
upperback 0.651769 -0.489008 1.58944
thorax 2.78986 -0.255854 1.57332
lowerneck -12.4429 -0.809414 -2.594
upperneck 17.7686 -0.848435 1.37222
head 7.53463 -0.451002 0.793766
rclavicle 3.2551e-015 -3.08116e-014
rhumerus -28.3856 -18.2567 -80.2118
rradius 22.6502
rwrist 34.972
rhand -20.0665 -25.8594
rfingers 7.12502
rthumb 6.27558 -55.7465
lclavicle 3.2551e-015 -3.08116e-014
lhumerus -26.7416 1.01952 88.5162
lradius 16.7562
lwrist 2.93476
lhand -26.4721 -4.8667
lfingers 7.12502
lthumb 0.0897592 25.113
rfemur -11.4893 -1.20748 19.1386
rtibia 19.5833
rfoot -12.9927 -2.74813
rtoes 10.8144
lfemur -11.351 5.73224 -15.3992
ltibia 18.0631
lfoot -9.20199 7.06025
ltoes -3.30085
564
root -0.0270834 17.7192 2.36033 6.58706 -0.0336094 -2.04401
lowerback -3.78077 -0.337255 0.0303334
upperback 0.649852 -0.495022 1.58942
thorax 2.80188 -0.259285 1.5868
lowerneck -12.4574 -0.813685 -2.60116
upperneck 17.6841 -0.851645 1.37095
head 7.50957 -0.452757 0.793966
rclavicle 6.60959e-015 -2.38542e-015
rhumerus -28.4186 -18.315 -80.1839
rradius 22.6227
rwrist 35.0378
rhand -20.0306 -25.8701
rfingers 7.12502
rthumb 6.31023 -55.7561
lclavicle 6.60959e-015 -2.38542e-015
lhumerus -26.7394 1.27121 88.3861
lradius 16.5891
lwrist 2.62491
lhand -26.5192 -5.06923
lfingers 7.12502
lthumb 0.0443262 24.9105
rfemur -11.4866 -1.17445 19.1289
rtibia 19.5745
rfoot -13.0048 -2.78837
rtoes 10.8151
lfemur -11.3427 5.73005 -15.4085
ltibia 18.0403
lfoot -9.20541 7.06121
ltoes -3.3114
565
root -0.0266176 17.7193 2.36401 6.59551 -0.0252018 -2.017
lowerback -3.79821 -0.345126 -0.0120442
upperback 0.650263 -0.503531 1.58458
thorax 2.81268 -0.264212 1.60502
lowerneck -12.4829 -0.824476 -2.61992
upperneck 17.6137 -0.863845 1.38322
head 7.49144 -0.458326 0.799633
rclavicle -4.24902e-015 -4.37326e-015
rhumerus -28.4487 -18.3745 -80.1525
rradius 22.59
rwrist 35.0953
rhand -20.0048 -25.881
rfingers 7.12502
rthumb 6.3352 -55.7663
lclavicle -4.24902e-015 -4.37326e-015
lhumerus -26.7364 1.46868 88.2809
lradius 16.4574
lwrist 2.39092
lhand -26.5311 -5.12826
lfingers 7.12502
lthumb 0.0327459 24.8515
rfemur -11.4795 -1.15367 19.0975
rtibia 19.5728
rfoot -13.0219 -2.82485
rtoes 10.8131
lfemur -11.324 5.71347 -15.4386
ltibia 18.0088
lfoot -9.20357 7.06609
ltoes -3.32443
566
root -0.0260035 17.7193 2.36753 6.60041 -0.0130841 -1.99349
lowerback -3.80918 -0.352133 -0.0494228
upperback 0.651823 -0.511075 1.57994
thorax 2.82096 -0.268578 1.62073
lowerneck -12.5177 -0.840148 -2.64612
upperneck 17.5557 -0.883311 1.40728
head 7.47925 -0.466766 0.809673
rclavicle 3.55328e-015 -4.37326e-015
rhumerus -28.4776 -18.4419 -80.1152
rradius 22.5505
rwrist 35.1558
rhand -19.9876 -25.8825
rfingers 7.12502
rthumb 6.35181 -55.7673
lclavicle 3.55328e-015 -4.37326e-015
lhumerus -26.7322 1.61338 88.1983
lradius 16.3495
lwrist 2.21749
lhand -26.5267 -5.12352
lfingers 7.12502
lthumb 0.037058 24.8562
rfemur -11.4698 -1.13759 19.0698
rtibia 19.5729
rfoot -13.0398 -2.8586
rtoes 10.8134
lfemur -11.3015 5.69042 -15.4647
ltibia 17.9754
lfoot -9.19884 7.07359
ltoes -3.33731
567
root -0.0252171 17.7193 2.37098 6.60452 0.00129817 -1.97618
lowerback -3.81799 -0.358541 -0.0785708
upperback 0.65315 -0.518217 1.57649
thorax 2.82772 -0.272616 1.63307
lowerneck -12.5509 -0.860391 -2.67788
upperneck 17.5 -0.909536 1.43965
head 7.46776 -0.478039 0.822674
rclavicle 5.34234e-015 -1.07344e-014
rhumerus -28.508 -18.5158 -80.0722
rradius 22.5068
rwrist 35.2255
rhand -19.9838 -25.8732
rfingers 7.12502
rthumb 6.35542 -55.7579
lclavicle 5.34234e-015 -1.07344e-014
lhumerus -26.7304 1.71191 88.1361
lradius 16.2587
lwrist 2.09589
lhand -26.5174 -5.11673
lfingers 7.12502
lthumb 0.0459761 24.863
rfemur -11.4577 -1.12593 19.0484
rtibia 19.5705
rfoot -13.055 -2.88901
rtoes 10.802
lfemur -11.2815 5.66427 -15.4843
ltibia 17.9481
lfoot -9.1977 7.08336
ltoes -3.34909
568
root -0.0243595 17.7193 2.37408 6.61316 0.00913679 -1.97415
lowerback -3.82924 -0.361246 -0.0916644
upperback 0.653293 -0.521295 1.57676
thorax 2.83441 -0.274392 1.64046
lowerneck -12.5858 -0.878387 -2.70543
upperneck 17.4489 -0.933517 1.47219
head 7.45803 -0.487954 0.835263
rclavicle 1.46604e-015 -7.95139e-016
rhumerus -28.5388 -18.5978 -80.0234
rradius 22.4599
rwrist 35.3093
rhand -19.9878 -25.8562
rfingers 7.12502
rthumb 6.3516 -55.741
lclavicle 1.46604e-015 -7.95139e-016
lhumerus -26.7307 1.77519 88.0909
lradius 16.1856
lwrist 2.01405
lhand -26.5058 -5.11417
lfingers 7.12502
lthumb 0.0571997 24.8656
rfemur -11.4488 -1.11233 19.0434
rtibia 19.5598
rfoot -13.0636 -2.91183
rtoes 10.7956
lfemur -11.2741 5.64638 -15.4883
ltibia 17.9352
lfoot -9.20251 7.09533
ltoes -3.36467
569
root -0.0235915 17.7194 2.37661 6.63124 0.00809534 -1.98805
lowerback -3.84579 -0.360158 -0.0903279
upperback 0.649258 -0.520122 1.58159
thorax 2.83957 -0.273828 1.64469
lowerneck -12.609 -0.89349 -2.72494
upperneck 17.3924 -0.95434 1.49905
head 7.44434 -0.496384 0.844982
rclavicle -1.2424e-015 -5.56597e-015
rhumerus -28.5752 -18.6743 -79.972
rradius 22.418
rwrist 35.3981
rhand -19.9991 -25.8368
rfingers 7.12502
rthumb 6.34066 -55.7219
lclavicle -1.2424e-015 -5.56597e-015
lhumerus -26.734 1.81685 88.0584
lradius 16.1267
lwrist 1.9614
lhand -26.4869 -5.10849
lfingers 7.12502
lthumb 0.0754766 24.8712
rfemur -11.449 -1.09026 19.0557
rtibia 19.5399
rfoot -13.0632 -2.93197
rtoes 10.7895
lfemur -11.2866 5.64152 -15.4759
ltibia 17.9391
lfoot -9.2138 7.10686
ltoes -3.37491
570
root -0.0228117 17.7195 2.3788 6.65152 0.00503718 -2.01455
lowerback -3.86246 -0.357005 -0.0765304
upperback 0.644223 -0.516889 1.58997
thorax 2.84363 -0.272054 1.64571
lowerneck -12.6282 -0.908583 -2.74221
upperneck 17.3347 -0.975766 1.52631
head 7.42953 -0.50493 0.854406
rclavicle 1.81391e-015 -1.98785e-015
rhumerus -28.611 -18.7539 -79.9169
rradius 22.3744
rwrist 35.4908
rhand -20.0142 -25.8219
rfingers 7.12502
rthumb 6.32612 -55.7074
lclavicle 1.81391e-015 -1.98785e-015
lhumerus -26.7356 1.8379 88.038
lradius 16.0805
lwrist 1.93263
lhand -26.4621 -5.08668
lfingers 7.12502
lthumb 0.0993948 24.893
rfemur -11.45 -1.06692 19.082
rtibia 19.5133
rfoot -13.058 -2.95
rtoes 10.7857
lfemur -11.3092 5.64437 -15.4498
ltibia 17.956
lfoot -9.23191 7.11508
ltoes -3.37353
571
root -0.0220409 17.7196 2.38063 6.67595 0.000766583 -2.04912
lowerback -3.88068 -0.352982 -0.056272
upperback 0.638343 -0.5129 1.60133
thorax 2.84763 -0.269818 1.6462
lowerneck -12.6415 -0.924516 -2.76006
upperneck 17.2727 -0.998591 1.55495
head 7.41237 -0.514066 0.864237
rclavicle -3.50358e-015 5.96354e-015
rhumerus -28.6438 -18.8323 -79.861
rradius 22.3324
rwrist 35.5785
rhand -20.026 -25.8161
rfingers 7.12502
rthumb 6.31472 -55.7019
lclavicle -3.50358e-015 5.96354e-015
lhumerus -26.7345 1.84823 88.0265
lradius 16.046
lwrist 1.91838
lhand -26.4371 -5.05716
lfingers 7.12502
lthumb 0.123624 24.9225
rfemur -11.4574 -1.0424 19.1177
rtibia 19.4866
rfoot -13.0501 -2.96809
rtoes 10.7707
lfemur -11.339 5.65364 -15.415
ltibia 17.9757
lfoot -9.25073 7.11835
ltoes -3.36233
